<?xml version="1.0" encoding="utf-8" ?>
<svg xmlns="http://www.w3.org/2000/svg" xmlns:xlink="http://www.w3.org/1999/xlink" width="180" height="43">
	<defs>
		<clipPath id="clip_0">
			<rect y="10.559261" width="33.797134" height="31.415352" clip-rule="evenodd"/>
		</clipPath>
	</defs>
	<g clip-path="url(#clip_0)">
		<path fill="rgb(249,182,0)" stroke="none" transform="translate(0 10.5593)" d="M31.7517 4.80867C28.0752 -0.986556 21.2257 -0.607565 16.8982 1.12184C12.5707 -0.607044 5.72121 -0.986035 2.04521 4.80867C-1.87829 10.9923 0.473214 17.0816 3.82321 21.4629C7.12621 25.7833 12.0327 29.201 15.6792 31.0637C16.1122 31.2844 16.3852 31.4088 16.8667 31.4151C17.3717 31.4224 17.6852 31.2844 18.1177 31.0637C21.7642 29.201 26.6707 25.7833 29.9737 21.4629C33.3237 17.0816 35.6757 10.9923 31.7517 4.80867ZM23.7057 18.3097C21.2577 21.0756 19.0242 22.515 16.8982 23.7457C14.7732 22.515 12.5392 21.0756 10.0912 18.3097C6.98271 14.7978 5.83071 11.2999 7.88821 8.49238C9.38871 6.44489 12.7797 6.10026 15.4937 7.96762C16.0712 8.36536 16.5087 8.57619 16.8982 8.54236C17.2882 8.57619 17.7257 8.36536 18.3032 7.96762C21.0172 6.10026 24.4082 6.44489 25.9087 8.49238C27.9667 11.2999 26.8147 14.7978 23.7057 18.3097Z" fill-rule="evenodd"/>
	</g>
	<defs>
		<clipPath id="clip_1">
			<rect x="-345" y="-23" width="1920" height="1080" clip-rule="evenodd"/>
		</clipPath>
	</defs>
	<g clip-path="url(#clip_1)">
		<path fill="rgb(253,253,253)" stroke="none" transform="translate(41 10.2439)" d="M9.74609 0.586511C10.6499 0.197403 11.6827 0 12.8419 0C14.2116 0 15.5094 0.268386 16.7369 0.802566C17.9649 1.33675 18.9778 2.08439 19.7812 3.04136L19.8867 3.16726L20.0157 3.06571C20.3353 2.81339 20.5693 2.62997 20.7115 2.52168C20.8884 2.37765 21.0505 2.24967 21.1917 2.1419C23.0151 0.716559 25.1918 0 27.7289 0C29.2469 0 30.6386 0.23419 31.9033 0.698424C33.1675 1.12639 34.2558 1.76989 35.1647 2.62272C36.0736 3.43979 36.7745 4.43562 37.2649 5.61019C37.7538 6.74694 38 8.01167 38 9.40593L38 25.8987C38 27.7023 37.6972 28.9395 37.1278 29.654C36.5655 30.3581 35.6266 30.7317 34.2619 30.7317C33.0538 30.7317 32.124 30.3312 31.447 29.5421C30.8027 28.7483 30.4703 27.6163 30.4703 26.1158L30.4703 10.7126C30.4703 9.54997 30.1191 8.61269 29.4009 7.92152C28.7183 7.22724 27.7798 6.89202 26.6048 6.89202C25.3575 6.89202 24.3619 7.24848 23.6437 7.97903C22.9631 8.70906 22.6313 9.71991 22.6313 10.9846L22.6313 26.4422C22.6313 27.8302 22.2999 28.8898 21.6566 29.6483C21.0174 30.3654 20.1222 30.7317 18.9467 30.7317C17.7335 30.7317 16.7996 30.3628 16.1242 29.6431C15.4834 28.8846 15.1541 27.8432 15.1541 26.4971L15.1541 10.6033C15.1541 9.44738 14.8416 8.52617 14.1942 7.86815C13.5463 7.21066 12.6415 6.89202 11.5027 6.89202C10.2854 6.89202 9.29189 7.28838 8.54102 8.08836C7.82531 8.85517 7.47664 9.90073 7.47664 11.2022L7.47664 26.4422C7.47664 29.3442 6.24761 30.7317 3.79159 30.7317C1.26216 30.7317 0 29.3235 0 26.3878L0 4.2351C0 2.88178 0.31656 1.87559 0.921135 1.19323C1.52571 0.477188 2.38567 0.108805 3.52397 0.108805C4.40024 0.108805 5.05375 0.324861 5.47685 0.622779C5.90403 0.923288 6.30113 1.43467 6.68906 2.29371L6.78337 2.50148L6.95515 2.3533C7.90738 1.52897 8.84024 0.940904 9.74609 0.586511"/>
	</g>
	<defs>
		<clipPath id="clip_2">
			<rect x="-345" y="-23" width="1920" height="1080" clip-rule="evenodd"/>
		</clipPath>
	</defs>
	<g clip-path="url(#clip_2)">
		<path fill="rgb(253,253,253)" stroke="none" transform="translate(83 1.02439)" d="M6.02483 38.8236C5.3794 39.5735 4.54271 39.9512 3.49976 39.9512C2.48973 39.9512 1.6511 39.5924 0.97081 38.8733C0.323926 38.1542 0 37.2485 0 36.1389L0 4.18958C0 1.36133 1.19499 0 3.60144 0C5.86989 0 7 1.30546 7 4.0271L7 36.0312C7 37.1409 6.67365 38.0676 6.02483 38.8236"/>
	</g>
	<defs>
		<clipPath id="clip_3">
			<rect x="-345" y="-23" width="1920" height="1080" clip-rule="evenodd"/>
		</clipPath>
	</defs>
	<g clip-path="url(#clip_3)">
		<path fill="rgb(253,253,253)" stroke="none" transform="translate(109 10.2439)" d="M9.56225 0.586505C10.6766 0.195845 11.8806 0 13.1746 0C14.75 0 16.1837 0.269029 17.4727 0.800903C18.7945 1.29722 19.9094 2.05998 20.8117 3.08559C21.6088 3.93236 22.1645 4.90592 22.4757 5.99647C22.8224 7.05609 23 8.41103 23 10.0603L23 26.6272C23 27.8533 22.6387 28.8392 21.9291 29.5963C21.2546 30.3508 20.379 30.7317 19.2885 30.7317C18.2323 30.7317 17.337 30.3704 16.5891 29.6443C15.878 28.9207 15.5238 28.028 15.5238 26.9519L15.5238 11.9558C15.5238 10.8735 15.4884 10.1206 15.4145 9.70567C15.3401 9.24904 15.1726 8.81406 14.913 8.39918C14.6093 7.89565 14.1549 7.51427 13.5607 7.24936C13.0056 6.94992 12.3785 6.80253 11.6857 6.80253C10.9534 6.80253 10.2733 6.95096 9.64676 7.25194C9.02227 7.55086 8.50101 7.9678 8.09413 8.49607C7.83401 8.87488 7.64423 9.3011 7.53289 9.75412C7.46053 10.1937 7.42257 10.9318 7.42257 11.9558L7.42257 26.7354C7.42257 28.0424 7.09413 29.0227 6.45951 29.703C5.8254 30.3818 4.91852 30.7317 3.71154 30.7317C2.61893 30.7317 1.72368 30.3678 1.01316 29.6458C0.340081 28.8887 0 27.9239 0 26.7354L0 3.83444C0 2.63721 0.310729 1.72808 0.909919 1.08333C1.51012 0.439621 2.34717 0.10823 3.44534 0.10823C4.62196 0.10823 5.40789 0.527751 5.93421 1.14157C6.34312 1.61778 6.77126 2.36973 6.77126 2.36973L6.91498 2.22387C7.60324 1.52295 8.48381 0.975618 9.56225 0.586505"/>
	</g>
	<defs>
		<clipPath id="clip_4">
			<rect x="-345" y="-23" width="1920" height="1080" clip-rule="evenodd"/>
		</clipPath>
	</defs>
	<g clip-path="url(#clip_4)">
		<path fill="rgb(253,253,253)" stroke="none" transform="translate(163 10.2439)" d="M12.2094 0C13.6707 0 14.8272 0.369914 15.6986 1.09482C16.5648 1.81562 17 2.77513 17 3.98931C17 4.99822 16.7024 5.8003 16.1198 6.41099C15.5402 7.01963 14.7524 7.33038 13.7367 7.33038L13.4178 7.33038L11.1272 7.11429L10.7912 7.11429C9.49914 7.11429 8.56076 7.62981 8.01808 8.66701C7.79011 9.11718 7.63951 9.60337 7.56421 10.1256C7.49047 10.5994 7.45308 11.3639 7.45308 12.4212L7.45308 27.1211C7.45308 28.2385 7.11968 29.1101 6.46744 29.7562C5.81623 30.4009 4.91887 30.7317 3.75354 30.7317C2.5124 30.7317 1.58129 30.4004 0.932154 29.7578C0.317815 29.1152 0 28.1917 0 26.9595L0 3.71921C0 2.56213 0.319373 1.67053 0.93527 1.02537C1.55272 0.347277 2.39452 0 3.48039 0C4.39541 0 5.27407 0.128621 5.89568 0.675004C6.62842 1.31862 6.82576 2.41808 6.82576 2.41808L7.03608 2.22309C8.64696 0.734169 10.37 0 12.2094 0"/>
	</g>
	<defs>
		<clipPath id="clip_5">
			<rect x="95.448059" y="0.47890091" width="7.4905014" height="7.6741171" clip-rule="evenodd"/>
		</clipPath>
	</defs>
	<g clip-path="url(#clip_5)">
		<path fill="rgb(253,253,253)" stroke="none" transform="translate(95.4481 0.478802)" d="M1.103 1.08329C1.8425 0.360585 2.728 0 3.772 0C4.8515 0 5.7375 0.363146 6.4385 1.08176C7.137 1.76246 7.4905 2.6501 7.4905 3.75746C7.4905 4.86124 7.1215 5.78678 6.3835 6.54227C5.68 7.29724 4.812 7.67422 3.772 7.67422C2.6945 7.67422 1.793 7.29878 1.055 6.54227C0.351 5.78729 0 4.8638 0 3.75746C0 2.69056 0.3665 1.80293 1.103 1.08329"/>
	</g>
	<defs>
		<clipPath id="clip_6">
			<rect x="-345" y="-23" width="1920" height="1080" clip-rule="evenodd"/>
		</clipPath>
	</defs>
	<g clip-path="url(#clip_6)">
		<path fill="rgb(253,253,253)" stroke="none" transform="translate(96 10.2439)" d="M6.02442 29.5858C5.37951 30.3478 4.5424 30.7317 3.49952 30.7317C2.48956 30.7317 1.65147 30.3671 0.970743 29.6363C0.324388 28.9055 0 27.9851 0 26.8574L0 4.25764C0 1.38345 1.19491 0 3.60119 0C5.86997 0 7 1.32667 7 4.09357L7 26.748C7 27.8757 6.67368 28.8175 6.02442 29.5858"/>
	</g>
	<defs>
		<clipPath id="clip_7">
			<rect x="-345" y="-23" width="1920" height="1080" clip-rule="evenodd"/>
		</clipPath>
	</defs>
	<g clip-path="url(#clip_7)">
		<path fill="rgb(253,253,253)" stroke="none" transform="translate(135 10.2439)" d="M9.85623 30.7255C11.2595 30.7255 12.4854 30.5105 13.5353 30.0857C14.5851 29.6599 15.4447 29.0398 16.1179 28.2286L16.1822 28.1514C16.333 28.7347 16.6211 29.247 17.0467 29.6925C17.7412 30.3867 18.5721 30.7317 19.5538 30.7317C20.5661 30.7317 21.3792 30.3675 22.006 29.6464C22.6644 28.9233 23 27.9815 23 26.8097L22.9837 7.99012C22.9837 6.81989 22.7301 5.75948 22.2254 4.80785C21.7188 3.81737 20.9907 2.96469 20.0397 2.2524C19.1242 1.54114 18.0155 0.986332 16.716 0.591592C15.4526 0.198406 14.0488 0 12.5042 0C11.0292 0 9.60611 0.180275 8.23395 0.539789C6.86179 0.899303 5.64731 1.38314 4.58804 1.99183C3.56287 2.60052 2.73295 3.29364 2.09037 4.07432C1.48585 4.84722 1.19421 5.64188 1.19421 6.46607C1.19421 7.44256 1.45817 8.23152 1.97668 8.84643C2.53029 9.42662 3.24801 9.72034 4.14367 9.72034C4.57815 9.72034 4.93503 9.65093 5.21925 9.51779C5.51632 9.38 6.05856 9.04431 6.85586 8.49831C8.74456 7.14366 10.5581 6.45571 12.297 6.45571C13.6316 6.45571 14.6341 6.76601 15.2678 7.42961C15.9039 8.05798 16.201 9.05519 16.201 10.3839C16.201 10.5891 16.1832 10.7631 16.1392 10.8921C16.0937 11.0227 15.9983 11.1563 15.8278 11.1563L13.5427 11.1563C8.81228 11.1563 5.37545 11.9898 3.20253 13.6273C1.0741 15.2203 0 17.6825 0 21.0502C0 24.0973 0.870946 26.4605 2.59554 28.1623C4.32211 29.865 6.73476 30.7255 9.85623 30.7255ZM8.45638 18.3554C9.21907 17.7467 10.2981 17.4136 11.6663 17.3401L13.1734 17.2852L14.3123 17.2313L15.1476 17.1769L15.5673 17.1764C15.6503 17.1764 15.7171 17.1831 15.769 17.1935C15.8149 17.2033 15.8738 17.2209 15.9232 17.2613C15.9593 17.2867 15.9944 17.3313 16.0117 17.4085C16.0191 17.4442 16.0265 17.497 16.0319 17.5675C16.0403 17.6882 16.0453 17.8695 16.0453 18.1114L16.0453 19.6904C16.0453 21.044 15.5762 22.1459 14.637 22.9783C13.7003 23.8092 12.4819 24.2169 10.998 24.2169C9.86561 24.2169 8.9566 23.9372 8.29375 23.3591C7.66402 22.7753 7.35361 21.9604 7.35361 20.9414C7.35361 19.8442 7.7184 18.9739 8.45638 18.3554Z" fill-rule="evenodd"/>
	</g>
</svg>
